HIERARCHY
	ROOT pelvis
	{
		OFFSET 0 0 0 
		CHANNELS 6 Xposition Yposition Zposition Zrotation Xrotation Yrotation
		JOINT lfemur_phantom
		{
			OFFSET 0 0.0899607 0 
			CHANNELS 3 Zrotation Xrotation Yrotation
			JOINT lfemur
			{
				OFFSET 0 0 -0.426035 
				CHANNELS 3 Zrotation Xrotation Yrotation
				JOINT ltibia
				{
					OFFSET 0 0 -0.409933 
					CHANNELS 3 Zrotation Xrotation Yrotation
					JOINT lfoot
					{
						OFFSET 0.105631 0 0.00135511 
						CHANNELS 3 Zrotation Xrotation Yrotation
						End Site
						{
							OFFSET 0.0352103 0 0.000451703
						}
					}
				}
			}
		}
		JOINT rfemur_phantom
		{
			OFFSET 0 -0.0899607 0 
			CHANNELS 3 Zrotation Xrotation Yrotation
			JOINT rfemur
			{
				OFFSET 0 0 -0.430137 
				CHANNELS 3 Zrotation Xrotation Yrotation
				JOINT rtibia
				{
					OFFSET 0 0 -0.390377 
					CHANNELS 3 Zrotation Xrotation Yrotation
					JOINT rfoot
					{
						OFFSET 0.106801 0 -0.00121178 
						CHANNELS 3 Zrotation Xrotation Yrotation
						End Site
						{
							OFFSET 0.0356003 0 -0.000403927
						}
					}
				}
			}
		}
		JOINT lowerback_phantom
		{
			OFFSET -0.05 0 0.107967 
			CHANNELS 3 Zrotation Xrotation Yrotation
			JOINT lowerback
			{
				OFFSET 0.0167886 0 0.161801 
				CHANNELS 3 Zrotation Xrotation Yrotation
				JOINT upperback
				{
					OFFSET 0 0 0 
					CHANNELS 3 Zrotation Xrotation Yrotation
					JOINT lclavicle_phantom
					{
						OFFSET 0 0 0.199349 
						CHANNELS 3 Zrotation Xrotation Yrotation
						JOINT lclavicle
						{
							OFFSET 0 0.164108 -0.0174105 
							CHANNELS 3 Zrotation Xrotation Yrotation
							JOINT lhumerus
							{
								OFFSET 0 0 -0.275026 
								CHANNELS 3 Zrotation Xrotation Yrotation
								JOINT lradius
								{
									OFFSET 0 0 -0.248775 
									CHANNELS 3 Zrotation Xrotation Yrotation
									End Site
									{
										OFFSET 0 0 -0.082925
									}
								}
							}
						}
					}
					JOINT rclavicle_phantom
					{
						OFFSET 0 0 0.199349 
						CHANNELS 3 Zrotation Xrotation Yrotation
						JOINT rclavicle
						{
							OFFSET 0 -0.165322 -0.0298984 
							CHANNELS 3 Zrotation Xrotation Yrotation
							JOINT rhumerus
							{
								OFFSET 0 0 -0.273337 
								CHANNELS 3 Zrotation Xrotation Yrotation
								JOINT rradius
								{
									OFFSET 0 0 -0.254845 
									CHANNELS 3 Zrotation Xrotation Yrotation
									End Site
									{
										OFFSET 0 0 -0.0849483
									}
								}
							}
						}
					}
					JOINT LowerNeck_phantom
					{
						OFFSET 0 0 0.199349 
						CHANNELS 3 Zrotation Xrotation Yrotation
						JOINT LowerNeck
						{
							OFFSET -0.0127292 -0.000602123 0.105365 
							CHANNELS 3 Zrotation Xrotation Yrotation
							End Site
							{
								OFFSET -0.00424307 -0.000200708 0.0351217
							}
						}
					}
				}
			}
		}
	}
MOTION
Frames:	11
Frame Time:	0.0166667
0.0835541 0.887037 0.000652 87.5332 -51.692 82.8295 14.4019 5.26606 -8.31094 19.6446 4.16159 11.4915 -2.89029 -11.0452 30.2365 -7.77741e-006 5.00843e-006 10.7808 -16.0815 -5.76448 -0.466023 -30.1317 -11.3144 18.6762 5.45929 7.59242 9.12015 6.03407e-007 5.57414e-007 25.3964 1.60992 -0.240136 7.61557 3.78748 1.4386 2.86258 -0 0 -0 -5.61497 -8.28417 -0.811566 15.5665 22.8117 -23.9138 -0.101508 -0.140689 -125.812 1.03154e-005 -0.162505 -12.6852 1.44687 0.854215 -0.0215745 18.682 -34.1497 -30.5506 8.876 12.8516 -125.073 -1.13669e-005 -4.3354 -10.2175 -2.61554 2.92866 40.8533 18.7498 -29.5542 -65.1413 
0.0856485 0.887681 0.002859 87.6186 -52.6772 82.953 15.316 5.65569 -7.92202 19.9861 3.94436 10.7102 -2.90336 -11.4018 30.6111 1.18567e-005 -2.28427e-006 10.9173 -15.5063 -5.42327 -0.280284 -29.9185 -10.9818 18.3166 5.47001 7.5745 9.00246 -1.92618e-006 -4.92416e-007 25.754 1.73547 -0.120756 7.26489 3.87603 1.40529 2.84894 -0 0 -0 -5.50991 -8.30757 -0.798521 15.6474 22.5781 -23.2128 -0.075208 -0.104154 -125.835 -5.82441e-006 -0.16196 -12.7234 1.37464 0.831165 -0.0199442 19.0082 -34.0905 -30.3693 8.87077 12.8361 -125.089 5.68957e-006 -4.44919 -10.2569 -2.45112 2.77538 41.0159 18.9723 -29.5154 -65.0965 
0.0877119 0.887958 0.005221 87.7971 -53.8056 83.1401 16.1489 6.12522 -7.73139 20.4181 3.88665 10.3197 -2.92835 -11.6505 30.7854 6.34522e-006 -1.61267e-006 10.9511 -14.9169 -5.03722 -0.194763 -29.4733 -10.69 18.1708 5.46101 7.51541 8.83527 -5.52165e-007 3.97447e-007 26.0378 1.8477 0.0402227 6.95293 3.98157 1.43847 2.84251 -0 0 -0 -5.3958 -8.3749 -0.788177 15.9133 22.3896 -22.5998 -0.150249 -0.207497 -125.908 8.62392e-006 -0.146858 -12.8162 1.31217 0.775262 -0.0177575 19.3395 -34.0768 -30.3374 8.84233 12.8125 -125.05 8.14124e-006 -4.53305 -10.2397 -2.28546 2.53111 41.1257 19.3057 -29.547 -65.0211 
0.0897268 0.887864 0.007883 88.0975 -55.0316 83.4056 16.7285 6.69036 -7.7628 21.0618 4.04333 10.3757 -2.96744 -11.7847 30.7582 -8.4526e-006 5.33334e-006 10.862 -14.3234 -4.59067 -0.179433 -28.857 -10.4435 18.2083 5.45261 7.44378 8.61734 4.90022e-008 -6.03788e-007 26.2591 1.88972 0.235142 6.70977 4.12734 1.54133 2.81093 -0 0 -0 -5.29307 -8.48368 -0.783054 16.3519 22.2482 -22.0489 -0.311216 -0.427859 -126.032 2.81325e-006 -0.0430052 -12.9102 1.26907 0.70557 -0.0156297 19.6589 -34.1313 -30.399 8.81523 12.8008 -124.99 4.84266e-006 -4.54704 -10.21 -2.14671 2.22931 41.2191 19.7469 -29.6871 -64.9087 
0.0916734 0.887409 0.010879 88.4952 -56.3179 83.7128 16.8945 7.332 -7.9785 22.0328 4.45493 10.8649 -3.00603 -11.7697 30.563 7.68249e-006 -1.50278e-006 10.6643 -13.7607 -4.1096 -0.203113 -28.1029 -10.2412 18.4144 5.48393 7.40071 8.30128 1.35633e-006 7.61841e-007 26.4806 1.88079 0.44675 6.55546 4.27693 1.67164 2.78833 -0 0 -0 -5.22653 -8.59662 -0.783371 16.9236 22.1582 -21.5666 -0.513965 -0.701702 -126.224 2.75824e-006 0.203653 -12.952 1.2455 0.646984 -0.0140662 19.9275 -34.2508 -30.5661 8.81592 12.8341 -124.923 -2.04558e-005 -4.51747 -10.2284 -2.03914 1.94255 41.2849 20.267 -29.9297 -64.7812 
0.0935489 0.886617 0.014101 88.9415 -57.646 83.9993 16.5813 8.01848 -8.29954 23.3808 5.14613 11.7206 -3.02989 -11.6107 30.2651 1.52818e-005 -4.98108e-006 10.3679 -13.2128 -3.6297 -0.230018 -27.213 -10.0711 18.7816 5.5327 7.34778 7.85976 4.66465e-007 -1.25538e-007 26.6836 1.87189 0.637966 6.51854 4.3724 1.81513 2.79979 -0 0 -0 -5.19318 -8.69849 -0.787496 17.6014 22.1259 -21.176 -0.708811 -0.958571 -126.483 9.07223e-006 0.61877 -12.9461 1.22453 0.593443 -0.0126856 20.1429 -34.4167 -30.8633 8.82382 12.8911 -124.83 -4.58607e-006 -4.47273 -10.2663 -1.95814 1.68945 41.2899 20.843 -30.2327 -64.6315 
0.0953116 0.885507 0.017382 89.3838 -59.0176 84.2267 15.936 8.70185 -8.71238 25.0001 6.13665 12.9118 -3.04169 -11.3615 29.9045 9.67491e-006 2.30062e-007 10.0131 -12.7025 -3.19467 -0.302689 -26.1691 -9.94166 19.3584 5.60355 7.29571 7.31013 -6.30752e-007 -1.61072e-007 26.8219 1.87646 0.769559 6.59254 4.4193 1.99061 2.84023 -0 0 -0 -5.19159 -8.81233 -0.797477 18.4037 22.1589 -20.9008 -0.896374 -1.19921 -126.781 5.07013e-007 1.04046 -12.9556 1.17584 0.519533 -0.0106623 20.3474 -34.6154 -31.2817 8.81032 12.9506 -124.667 -6.98359e-006 -4.42467 -10.3069 -1.94064 1.43362 41.2605 21.5098 -30.5845 -64.499 
0.0969544 0.884164 0.020561 89.85 -60.4344 84.4298 15.1878 9.37134 -9.23312 26.7222 7.42563 14.3978 -3.04531 -11.0807 29.5271 -1.62665e-005 3.96801e-006 9.64834 -12.2532 -2.80487 -0.430461 -24.9784 -9.82276 20.1135 5.65147 7.2172 6.77297 7.40691e-007 -1.79144e-007 26.8311 1.8512 0.897648 6.75017 4.44987 2.16702 2.90293 -0 0 -0 -5.18938 -8.96683 -0.810995 19.3087 22.2576 -20.7344 -1.09181 -1.44423 -127.095 4.50364e-006 1.37572 -13.0319 1.10785 0.415906 -0.00804342 20.5604 -34.8437 -31.7842 8.78312 13.031 -124.42 3.40085e-006 -4.35617 -10.3377 -1.99992 1.19896 41.2392 22.2749 -31.0421 -64.3816 
0.0985011 0.882718 0.023451 90.3641 -61.8864 84.6337 14.5137 10.0137 -9.85657 28.3968 8.98097 16.1061 -3.01503 -10.7589 29.2437 -4.8837e-006 3.00203e-006 9.21602 -11.9041 -2.46769 -0.581841 -23.6835 -9.68046 20.975 5.68469 7.14124 6.31468 4.85475e-007 3.27975e-007 26.7535 1.78375 1.01863 7.02034 4.47335 2.36302 2.96786 -0 0 -0 -5.13989 -9.17924 -0.822082 20.2315 22.4061 -20.68 -1.28239 -1.67692 -127.415 -5.17749e-006 1.65149 -13.1718 1.01723 0.291297 -0.0051721 20.767 -35.1243 -32.3721 8.7222 13.0953 -124.103 1.48143e-005 -4.22138 -10.303 -2.1075 0.976667 41.1742 23.0932 -31.5809 -64.2025 
0.0999754 0.881305 0.025971 90.892 -63.3464 84.8304 13.9382 10.5923 -10.5667 29.8833 10.7299 17.952 -2.89361 -10.26 29.1569 5.95493e-006 -2.03366e-007 8.71453 -11.6154 -2.18801 -0.714419 -22.389 -9.50405 21.8421 5.73153 7.09571 5.9052 -1.42331e-006 1.40403e-007 26.6567 1.68741 1.10649 7.38987 4.45295 2.5833 3.03554 -0 0 -0 -5.03398 -9.44675 -0.828305 21.1304 22.5858 -20.7065 -1.42735 -1.84427 -127.748 6.23692e-006 1.93447 -13.3803 0.913808 0.167004 -0.00266398 20.9508 -35.4698 -33.0301 8.57001 13.0373 -123.745 -1.0215e-005 -3.97755 -10.0958 -2.20229 0.807193 41.0663 23.9056 -32.1864 -63.9792 
0.101422 0.880026 0.028146 91.3971 -64.7999 85.015 13.4977 11.0846 -11.3627 31.0137 12.5547 19.8785 -2.6556 -9.45971 29.2404 9.22217e-006 -2.02804e-006 8.38925 -11.2865 -1.94535 -0.802895 -21.1937 -9.29913 22.6233 5.7838 7.06216 5.51617 1.73496e-007 -5.28969e-007 26.5985 1.55218 1.17502 7.78401 4.41054 2.78228 3.13068 -0 0 -0 -4.93208 -9.71833 -0.834562 22.0102 22.7525 -20.7235 -1.49052 -1.90157 -128.102 3.66503e-006 2.21142 -13.7099 0.81781 0.0680215 -0.00097093 21.0794 -35.8708 -33.7021 8.40835 12.9493 -123.41 4.64469e-008 -3.6156 -9.81123 -2.27058 0.6895 40.9889 24.6814 -32.8163 -63.803 
